<?xml version="1.0" encoding="utf-8"?>
<?xml-stylesheet type="text/xsl" href="rss1.xsl"?>
<rss version="2.0" xmlns:atom="http://www.w3.org/2005/Atom" xmlns:content="http://purl.org/rss/1.0/modules/content/" xmlns:dc="http://purl.org/dc/elements/1.1/" xmlns:media="http://search.yahoo.com/mrss/">
<channel>
 <title>Getty</title>
 <link>http://www.gettyimg.com/</link>
 <atom:link href="http://www.gettyimg.com/" rel="self" type="application/rss+xml" />

 
                <item>
                <title><![CDATA[【Music Videos】Dua Lipa - Dating (WEB-DL 1080P) 2020]]></title>
                <link><![CDATA[https://sharemania.us/threads/dua-lipa-dating-web-dl-1080p-2020.222680/]]></link>
                <description><![CDATA[<article>
<blockquote class="messageText SelectQuoteContainer ugc baseHtml">
<img src="https://images2.imgbox.com/64/00/miVTCI8d_o.jpg" class="bbCodeImage LbImage" alt="[​IMG]" data-url="https://images2.imgbox.com/64/00/miVTCI8d_o.jpg" style=""> <br>
<br>
Dua Lipa and James Corden update the lyrics to "Don't Start Now" and "New Rules" for Covid-19 dating on 'The Late Late Show.'<br>
<br>
<div class="ToggleTriggerAnchor bbCodeSpoilerContainer">
<button type="button" class="button bbCodeSpoilerButton ToggleTrigger Tooltip JsOnly" data-target="> .SpoilerTarget"><span>Spoiler: <span class="SpoilerTitle">MediaInfo</span></span></button>
<div class="SpoilerTarget bbCodeSpoilerText">
<div class="bbCodeBlock bbCodeCode">
<div class="type">Code:</div>
<pre>General
Complete name                            : E:\Dua Lipa - Dating.mp4
Format                                   : MPEG-4
Format profile                           : Base Media / Version 2
Codec ID                                 : mp42 (mp42/mp41)
File size                                : 145 MiB
Duration                                 : 3 min 14 s
Overall bit rate mode                    : Variable
Overall bit rate                         : 6 262 kb/s
Encoded date                             : UTC 2020-09-18 00:14:25
Tagged date                              : UTC 2020-09-18 00:14:27
TIM                                      : 01:00:00:00
TSC                                      : 30000
TSZ                                      : 1001

Video
ID                                       : 1
Format                                   : AVC
Format/Info                              : Advanced Video Codec
Format profile                           : Main@L4.1
Format settings                          : CABAC / 3 Ref Frames
Format settings, CABAC                   : Yes
Format settings, Reference frames        : 3 frames
Codec ID                                 : avc1
Codec ID/Info                            : Advanced Video Coding
Duration                                 : 3 min 14 s
Bit rate                                 : 5 940 kb/s
Width                                    : 1 920 pixels
Height                                   : 1 080 pixels
Display aspect ratio                     : 16:9
Frame rate mode                          : Constant
Frame rate                               : 29.970 (30000/1001) FPS
Standard                                 : NTSC
Color space                              : YUV
Chroma subsampling                       : 4:2:0
Bit depth                                : 8 bits
Scan type                                : Progressive
Bits/(Pixel*Frame)                       : 0.096
Stream size                              : 138 MiB (95%)
Language                                 : English
Encoded date                             : UTC 2020-09-18 00:14:25
Tagged date                              : UTC 2020-09-18 00:14:25
Color range                              : Limited
Color primaries                          : BT.709
Transfer characteristics                 : BT.709
Matrix coefficients                      : BT.709
Codec configuration box                  : avcC

Audio
ID                                       : 2
Format                                   : AAC LC
Format/Info                              : Advanced Audio Codec Low Complexity
Codec ID                                 : mp4a-40-2
Duration                                 : 3 min 14 s
Source duration                          : 3 min 14 s
Bit rate mode                            : Variable
Bit rate                                 : 317 kb/s
Maximum bit rate                         : 412 kb/s
Channel(s)                               : 2 channels
Channel layout                           : L R
Sampling rate                            : 48.0 kHz
Frame rate                               : 46.875 FPS (1024 SPF)
Compression mode                         : Lossy
Stream size                              : 7.37 MiB (5%)
Source stream size                       : 7.38 MiB (5%)
Language                                 : English
Encoded date                             : UTC 2020-09-18 00:14:25
Tagged date                              : UTC 2020-09-18 00:14:25

</pre>
</div></div>
</div><br>
<div class="bbCodeBlock bbCodeVfcHH HiddenContent">
<div class="attribution type">Hidden Content:</div>
<blockquote>You must reply before you can see the hidden data contained here.</blockquote>
</div>
<div class="messageTextEndMarker">&nbsp;</div>
</blockquote>
</article>]]></description>
                <author><![CDATA[Gizmo234]]></author>
                </item>

                
                <item>
                <title><![CDATA[【Cinema Center】SERIES - Black Mirror - Season 6 [1080p] (WEB-DL) + Subtitles]]></title>
                <link><![CDATA[https://sharemania.us/threads/black-mirror-season-6-1080p-web-dl-subtitles.222681/]]></link>
                <description><![CDATA[<article>
<blockquote class="messageText SelectQuoteContainer ugc baseHtml">
<div style="text-align: center"><img src="https://i.imgur.com/j7cxVVp.jpg" class="bbCodeImage LbImage" alt="[​IMG]" data-url="https://i.imgur.com/j7cxVVp.jpg" style=""> <br>
<b>Black Mirror</b><br>
<span style="font-size: 12px">Season 6</span><br>
<br>
<b>English audio &amp; subtitles in all languages (available on Netflix)<br>
</b><br>
<div class="bbCodeBlock bbCodeVfcHH HiddenContent">
<div class="attribution type">Hidden Content:</div>
<blockquote>You must reply before you can see the hidden data contained here.</blockquote>
</div>
<div class="bbCodeBlock bbCodeVfcHH HiddenContent">
<div class="attribution type">Hidden Content:</div>
<blockquote>You must reply before you can see the hidden data contained here.</blockquote>
</div></div>
<div class="messageTextEndMarker">&nbsp;</div>
</blockquote>
</article>]]></description>
                <author><![CDATA[lovedante]]></author>
                </item>

                </channel></rss>